<?xml version="1.0" encoding="utf-8"?>
<!-- Generator: Adobe Illustrator 16.0.2, SVG Export Plug-In . SVG Version: 6.00 Build 0)  -->
<!DOCTYPE svg PUBLIC "-//W3C//DTD SVG 1.1//EN" "http://www.w3.org/Graphics/SVG/1.1/DTD/svg11.dtd">
<svg version="1.1" id="Layer_1" xmlns="http://www.w3.org/2000/svg" xmlns:xlink="http://www.w3.org/1999/xlink" x="0px" y="0px"
	 width="160px" height="160px" viewBox="0 0 160 160" enable-background="new 0 0 160 160" xml:space="preserve">
<g id="time">
	<path fill="#4E4E4E" d="M90.285,79.125c0,5.751-4.658,10.412-10.409,10.412c-5.751,0-10.418-4.661-10.418-10.412
		c0-5.749,4.667-10.415,10.418-10.415C85.627,68.71,90.285,73.376,90.285,79.125z M142.346,79.125
		c0,34.509-27.965,62.473-62.47,62.473c-34.502,0-62.473-27.964-62.473-62.473c0-34.496,27.971-62.473,62.473-62.473
		C114.381,16.652,142.346,44.629,142.346,79.125z M136.104,79.125c0-31.05-25.175-56.225-56.228-56.225S23.651,48.075,23.651,79.125
		c0,31.056,25.172,56.225,56.225,56.225S136.104,110.181,136.104,79.125z M86.124,63.691v-29.86c0-2.582-3.66-4.685-6.248-4.685
		c-2.588,0-6.249,2.103-6.249,4.685V63.69c1.932-0.785,4.038-1.226,6.249-1.226C82.086,62.464,84.192,62.906,86.124,63.691z
		 M113.556,72.876H95.307c0.785,1.932,1.227,4.038,1.227,6.249c0,2.21-0.441,4.316-1.227,6.248h18.249
		c3.64,0,6.592-2.603,6.592-6.242C120.147,75.482,117.195,72.876,113.556,72.876z"/>
</g>
</svg>
